<?xml version="1.0" encoding="UTF-8"?>
<!DOCTYPE svg PUBLIC "-//W3C//DTD SVG 1.1//EN" "http://www.w3.org/Graphics/SVG/1.1/DTD/svg11.dtd">
<svg version="1.2" width="215mm" height="60mm" viewBox="0 0 21500 6000" preserveAspectRatio="xMidYMid" fill-rule="evenodd" stroke-width="28.222" stroke-linejoin="round" xmlns="http://www.w3.org/2000/svg" xmlns:ooo="http://xml.openoffice.org/svg/export" xmlns:xlink="http://www.w3.org/1999/xlink" xmlns:presentation="http://sun.com/xmlns/staroffice/presentation" xmlns:smil="http://www.w3.org/2001/SMIL20/" xmlns:anim="urn:oasis:names:tc:opendocument:xmlns:animation:1.0" xml:space="preserve">
 <defs class="ClipPathGroup">
  <clipPath id="presentation_clip_path" clipPathUnits="userSpaceOnUse">
   <rect x="0" y="0" width="21500" height="6000"/>
  </clipPath>
  <clipPath id="presentation_clip_path_shrink" clipPathUnits="userSpaceOnUse">
   <rect x="21" y="6" width="21457" height="5988"/>
  </clipPath>
 </defs>
 <defs class="TextShapeIndex">
  <g ooo:slide="id1" ooo:id-list="id3 id4 id5 id6 id7 id8 id9 id10 id11 id12 id13 id14 id15 id16 id17 id18 id19 id20 id21 id22 id23 id24 id25 id26 id27 id28 id29 id30 id31 id32 id33 id34 id35 id36 id37 id38 id39 id40 id41 id42 id43 id44"/>
 </defs>
 <defs class="EmbeddedBulletChars">
  <g id="bullet-char-template-57356" transform="scale(0.00048828125,-0.00048828125)">
   <path d="M 580,1141 L 1163,571 580,0 -4,571 580,1141 Z"/>
  </g>
  <g id="bullet-char-template-57354" transform="scale(0.00048828125,-0.00048828125)">
   <path d="M 8,1128 L 1137,1128 1137,0 8,0 8,1128 Z"/>
  </g>
  <g id="bullet-char-template-10146" transform="scale(0.00048828125,-0.00048828125)">
   <path d="M 174,0 L 602,739 174,1481 1456,739 174,0 Z M 1358,739 L 309,1346 659,739 1358,739 Z"/>
  </g>
  <g id="bullet-char-template-10132" transform="scale(0.00048828125,-0.00048828125)">
   <path d="M 2015,739 L 1276,0 717,0 1260,543 174,543 174,936 1260,936 717,1481 1274,1481 2015,739 Z"/>
  </g>
  <g id="bullet-char-template-10007" transform="scale(0.00048828125,-0.00048828125)">
   <path d="M 0,-2 C -7,14 -16,27 -25,37 L 356,567 C 262,823 215,952 215,954 215,979 228,992 255,992 264,992 276,990 289,987 310,991 331,999 354,1012 L 381,999 492,748 772,1049 836,1024 860,1049 C 881,1039 901,1025 922,1006 886,937 835,863 770,784 769,783 710,716 594,584 L 774,223 C 774,196 753,168 711,139 L 727,119 C 717,90 699,76 672,76 641,76 570,178 457,381 L 164,-76 C 142,-110 111,-127 72,-127 30,-127 9,-110 8,-76 1,-67 -2,-52 -2,-32 -2,-23 -1,-13 0,-2 Z"/>
  </g>
  <g id="bullet-char-template-10004" transform="scale(0.00048828125,-0.00048828125)">
   <path d="M 285,-33 C 182,-33 111,30 74,156 52,228 41,333 41,471 41,549 55,616 82,672 116,743 169,778 240,778 293,778 328,747 346,684 L 369,508 C 377,444 397,411 428,410 L 1163,1116 C 1174,1127 1196,1133 1229,1133 1271,1133 1292,1118 1292,1087 L 1292,965 C 1292,929 1282,901 1262,881 L 442,47 C 390,-6 338,-33 285,-33 Z"/>
  </g>
  <g id="bullet-char-template-9679" transform="scale(0.00048828125,-0.00048828125)">
   <path d="M 813,0 C 632,0 489,54 383,161 276,268 223,411 223,592 223,773 276,916 383,1023 489,1130 632,1184 813,1184 992,1184 1136,1130 1245,1023 1353,916 1407,772 1407,592 1407,412 1353,268 1245,161 1136,54 992,0 813,0 Z"/>
  </g>
  <g id="bullet-char-template-8226" transform="scale(0.00048828125,-0.00048828125)">
   <path d="M 346,457 C 273,457 209,483 155,535 101,586 74,649 74,723 74,796 101,859 155,911 209,963 273,989 346,989 419,989 480,963 531,910 582,859 608,796 608,723 608,648 583,586 532,535 482,483 420,457 346,457 Z"/>
  </g>
  <g id="bullet-char-template-8211" transform="scale(0.00048828125,-0.00048828125)">
   <path d="M -4,459 L 1135,459 1135,606 -4,606 -4,459 Z"/>
  </g>
  <g id="bullet-char-template-61548" transform="scale(0.00048828125,-0.00048828125)">
   <path d="M 173,740 C 173,903 231,1043 346,1159 462,1274 601,1332 765,1332 928,1332 1067,1274 1183,1159 1299,1043 1357,903 1357,740 1357,577 1299,437 1183,322 1067,206 928,148 765,148 601,148 462,206 346,322 231,437 173,577 173,740 Z"/>
  </g>
 </defs>
 <g>
  <g id="id2" class="Master_Slide">
   <g id="bg-id2" class="Background"/>
   <g id="bo-id2" class="BackgroundObjects"/>
  </g>
 </g>
 <g class="SlideGroup">
  <g>
   <g id="container-id1">
    <g id="id1" class="Slide" clip-path="url(#presentation_clip_path)">
     <g class="Page">
      <g class="Group">
       <g class="Group">
        <g class="Group">
         <g class="com.sun.star.drawing.ClosedBezierShape">
          <g id="id3">
           <rect class="BoundingBox" stroke="none" fill="none" x="365" y="91" width="2157" height="3229"/>
           <path fill="rgb(254,174,101)" stroke="none" d="M 808,2351 C 816,2339 826,2327 834,2316 842,2304 851,2294 860,2281 868,2269 877,2259 886,2247 895,2236 905,2224 914,2213 923,2202 933,2191 942,2180 952,2170 961,2160 971,2149 981,2139 991,2129 1002,2118 1012,2107 1023,2098 1033,2087 1043,2077 1054,2068 1064,2057 1074,2048 1085,2039 1096,2030 1107,2020 1131,2014 1198,1948 1244,1849 1243,1752 1116,1660 1078,1623 819,1699 619,1678 499,1666 383,1570 375,1524 370,1507 410,1474 437,1480 483,1493 536,1594 589,1604 781,1630 1071,1597 1081,1545 1051,1424 947,1226 832,1116 642,935 390,990 439,880 481,783 831,1043 851,1011 877,975 879,849 890,798 903,751 953,756 943,808 924,915 951,1027 991,1145 1079,1406 1248,1695 1369,1762 1464,1842 1718,1794 1715,1662 1715,1520 1851,1277 1802,1193 1686,1078 1621,995 1346,1000 1176,996 1142,1069 1114,1066 1096,1019 1092,1016 1090,972 1100,920 1387,918 1494,938 1504,885 1478,746 1399,661 1321,578 1158,602 1168,549 1178,497 1401,553 1487,677 1574,803 1555,911 1599,957 1626,985 1884,1161 1897,1121 1950,981 1750,701 1687,481 1625,263 1618,114 1703,101 1738,94 1808,120 1736,218 1684,287 1737,408 1749,438 1816,374 2073,169 2125,179 2178,189 2213,266 2106,282 1904,390 1797,470 1792,501 1776,574 1817,665 1871,675 1909,679 1996,588 2058,545 2120,503 2200,568 2135,615 2073,653 1986,642 1913,742 1874,866 2062,819 1921,1285 1747,1637 1905,1637 1908,1643 1922,1640 1937,1638 1951,1637 1965,1634 1979,1632 1994,1629 2008,1628 2023,1626 2037,1625 2051,1622 2065,1622 2080,1621 2094,1620 2109,1619 2123,1618 2137,1618 2153,1618 2166,1616 2181,1617 2194,1616 2209,1616 2224,1617 2238,1616 2253,1617 2266,1619 2282,1618 2296,1619 2311,1620 2325,1620 2339,1621 2354,1623 2368,1625 2383,1627 2397,1627 2412,1629 2426,1631 2440,1633 2454,1636 2468,1638 2483,1640 2497,1642 2512,1644 2409,2200 2307,2755 2204,3309 1738,2990 1274,2671 808,2351 Z"/>
           <path fill="none" stroke="rgb(0,63,92)" stroke-width="18" stroke-linejoin="round" d="M 808,2351 C 816,2339 826,2327 834,2316 842,2304 851,2294 860,2281 868,2269 877,2259 886,2247 L 914,2213 C 923,2202 933,2191 942,2180 952,2170 961,2160 971,2149 L 1002,2118 C 1012,2107 1023,2098 1033,2087 1043,2077 1054,2068 1064,2057 L 1096,2030 C 1107,2020 1131,2014 1198,1948 1244,1849 1243,1752 1116,1660 1078,1623 819,1699 619,1678 499,1666 383,1570 375,1524 370,1507 410,1474 437,1480 483,1493 536,1594 589,1604 781,1630 1071,1597 1081,1545 1051,1424 947,1226 832,1116 642,935 390,990 439,880 481,783 831,1043 851,1011 877,975 879,849 890,798 903,751 953,756 943,808 924,915 951,1027 991,1145 1079,1406 1248,1695 1369,1762 1464,1842 1718,1794 1715,1662 1715,1520 1851,1277 1802,1193 1686,1078 1621,995 1346,1000 1176,996 1142,1069 1114,1066 1096,1019 1092,1016 1090,972 1100,920 1387,918 1494,938 1504,885 1478,746 1399,661 1321,578 1158,602 1168,549 1178,497 1401,553 1487,677 1574,803 1555,911 1599,957 1626,985 1884,1161 1897,1121 1950,981 1750,701 1687,481 1625,263 1618,114 1703,101 1738,94 1808,120 1736,218 1684,287 1737,408 1749,438 1816,374 2073,169 2125,179 2178,189 2213,266 2106,282 1904,390 1797,470 1792,501 1776,574 1817,665 1871,675 1909,679 1996,588 2058,545 2120,503 2200,568 2135,615 2073,653 1986,642 1913,742 1874,866 2062,819 1921,1285 1747,1637 1905,1637 1908,1643 1922,1640 1937,1638 1951,1637 1965,1634 1979,1632 1994,1629 L 2037,1625 C 2051,1622 2065,1622 2080,1621 2094,1620 2109,1619 2123,1618 2137,1618 2153,1618 2166,1616 2181,1617 2194,1616 2209,1616 2224,1617 2238,1616 2253,1617 2266,1619 2282,1618 2296,1619 2311,1620 2325,1620 2339,1621 2354,1623 2368,1625 2383,1627 2397,1627 2412,1629 2426,1631 L 2468,1638 C 2483,1640 2497,1642 2512,1644 L 2204,3309 C 1738,2990 1274,2671 808,2351 Z"/>
          </g>
         </g>
        </g>
        <g class="Group">
         <g class="com.sun.star.drawing.ClosedBezierShape">
          <g id="id4">
           <rect class="BoundingBox" stroke="none" fill="none" x="241" y="3179" width="1972" height="1411"/>
           <path fill="rgb(225,97,115)" stroke="none" d="M 1000,4511 C 993,4503 946,4458 922,4477 883,4507 839,4622 798,4563 754,4500 814,4464 827,4404 835,4361 800,4314 741,4279 652,4255 489,4451 457,4335 444,4292 551,4262 593,4197 633,4131 613,4027 568,4028 491,3978 318,4200 274,4139 189,4013 357,3989 420,3946 545,3860 534,3865 512,3744 478,3628 299,3706 267,3588 277,3538 488,3575 508,3471 444,3351 316,3326 326,3272 329,3196 433,3279 514,3189 1078,3228 1639,3279 2202,3319 1801,3716 1401,4113 1000,4511 Z"/>
           <path fill="none" stroke="rgb(0,63,92)" stroke-width="18" stroke-linejoin="round" d="M 1000,4511 C 993,4503 946,4458 922,4477 883,4507 839,4622 798,4563 754,4500 814,4464 827,4404 835,4361 800,4314 741,4279 652,4255 489,4451 457,4335 444,4292 551,4262 593,4197 633,4131 613,4027 568,4028 491,3978 318,4200 274,4139 189,4013 357,3989 420,3946 545,3860 534,3865 512,3744 478,3628 299,3706 267,3588 277,3538 488,3575 508,3471 444,3351 316,3326 326,3272 329,3196 433,3279 514,3189 1078,3228 1639,3279 2202,3319 1801,3716 1401,4113 1000,4511 Z"/>
          </g>
         </g>
        </g>
        <g class="Group">
         <g class="com.sun.star.drawing.ClosedBezierShape">
          <g id="id5">
           <rect class="BoundingBox" stroke="none" fill="none" x="2185" y="1601" width="1100" height="1767"/>
           <path fill="rgb(230,246,157)" stroke="none" d="M 2513,1645 C 2512,1641 2540,1648 2583,1667 2620,1684 2626,1597 2656,1612 2674,1620 2679,1664 2700,1674 2716,1685 2741,1620 2761,1631 2770,1634 2781,1676 2804,1693 2819,1701 2852,1642 2868,1651 2921,1660 2858,1703 2911,1713 2964,1723 2921,1660 2974,1670 3027,1680 2964,1722 3017,1732 3069,1742 3039,1777 3060,1795 3095,1826 3091,1790 3112,1804 3136,1815 3090,1823 3102,1857 3106,1870 3131,1849 3155,1866 3173,1881 3130,1902 3145,1920 3171,1948 3269,2005 3275,2007 2924,2451 2544,2914 2195,3357 2298,2801 2409,2199 2513,1645 Z"/>
           <path fill="none" stroke="rgb(0,63,92)" stroke-width="18" stroke-linejoin="round" d="M 2513,1645 C 2512,1641 2540,1648 2583,1667 2620,1684 2626,1597 2656,1612 2674,1620 2679,1664 2700,1674 2716,1685 2741,1620 2761,1631 2770,1634 2781,1676 2804,1693 2819,1701 2852,1642 2868,1651 2921,1660 2858,1703 2911,1713 2964,1723 2921,1660 2974,1670 3027,1680 2964,1722 3017,1732 3069,1742 3039,1777 3060,1795 3095,1826 3091,1790 3112,1804 3136,1815 3090,1823 3102,1857 3106,1870 3131,1849 3155,1866 3173,1881 3130,1902 3145,1920 3171,1948 3269,2005 3275,2007 2924,2451 2544,2914 2195,3357 2298,2801 2409,2199 2513,1645 Z"/>
          </g>
         </g>
         <g class="com.sun.star.drawing.CustomShape">
          <g id="id6">
           <rect class="BoundingBox" stroke="none" fill="none" x="2559" y="1753" width="111" height="111"/>
           <path fill="rgb(0,63,92)" stroke="none" d="M 2667,1818 C 2665,1827 2661,1836 2655,1843 2649,1850 2641,1856 2632,1859 2623,1862 2613,1863 2604,1861 2595,1859 2586,1855 2579,1849 2572,1843 2566,1835 2563,1826 2560,1817 2559,1807 2561,1798 2563,1789 2567,1780 2573,1773 2579,1766 2587,1760 2596,1757 2605,1754 2615,1753 2624,1755 2633,1757 2642,1761 2649,1767 2656,1773 2662,1781 2665,1790 2668,1799 2669,1809 2667,1818 L 2667,1818 Z"/>
          </g>
         </g>
         <g class="com.sun.star.drawing.CustomShape">
          <g id="id7">
           <rect class="BoundingBox" stroke="none" fill="none" x="2775" y="1825" width="57" height="58"/>
           <path fill="rgb(0,63,92)" stroke="none" d="M 2830,1859 C 2829,1864 2827,1868 2824,1872 2821,1876 2817,1878 2812,1880 2808,1881 2803,1882 2798,1881 2794,1880 2789,1877 2786,1874 2782,1871 2779,1867 2778,1862 2776,1858 2776,1853 2776,1848 2777,1843 2779,1839 2783,1835 2786,1832 2790,1829 2794,1827 2799,1826 2804,1826 2808,1827 2813,1828 2818,1830 2821,1833 2825,1836 2828,1840 2829,1845 2831,1850 2831,1854 2830,1859 L 2830,1859 Z"/>
          </g>
         </g>
         <g class="com.sun.star.drawing.CustomShape">
          <g id="id8">
           <rect class="BoundingBox" stroke="none" fill="none" x="2910" y="1928" width="111" height="112"/>
           <path fill="rgb(0,63,92)" stroke="none" d="M 3019,1994 C 3017,2003 3013,2012 3007,2019 3001,2026 2993,2032 2984,2035 2975,2038 2965,2039 2956,2037 2946,2035 2937,2031 2930,2025 2923,2019 2917,2011 2914,2002 2910,1993 2909,1983 2911,1973 2912,1964 2916,1955 2923,1948 2929,1941 2937,1935 2946,1932 2955,1929 2964,1928 2974,1930 2983,1932 2992,1936 3000,1942 3007,1948 3013,1956 3016,1965 3020,1974 3021,1984 3019,1994 L 3019,1994 Z"/>
          </g>
         </g>
         <g class="com.sun.star.drawing.CustomShape">
          <g id="id9">
           <rect class="BoundingBox" stroke="none" fill="none" x="2702" y="1920" width="57" height="57"/>
           <path fill="rgb(0,63,92)" stroke="none" d="M 2757,1953 C 2757,1957 2754,1962 2751,1966 2748,1969 2744,1972 2739,1974 2735,1975 2730,1976 2725,1975 2721,1974 2716,1972 2712,1968 2709,1965 2706,1961 2704,1957 2703,1952 2702,1947 2703,1942 2704,1938 2706,1933 2710,1930 2713,1926 2717,1923 2721,1922 2726,1920 2731,1920 2735,1921 2740,1921 2745,1924 2748,1927 2752,1930 2755,1934 2756,1938 2758,1943 2758,1948 2757,1953 L 2757,1953 Z"/>
          </g>
         </g>
        </g>
        <g class="Group">
         <g class="com.sun.star.drawing.ClosedBezierShape">
          <g id="id10">
           <rect class="BoundingBox" stroke="none" fill="none" x="675" y="3282" width="2329" height="2488"/>
           <path fill="rgb(45,135,187)" stroke="none" d="M 2759,4915 C 2778,4895 2715,4939 2745,5002 2876,5190 3068,5554 2964,5588 2848,5617 2809,5262 2621,5089 2507,4982 2368,4915 2260,4967 2191,4998 2087,5183 2086,5317 2083,5507 2202,5735 2114,5759 2093,5767 1974,5614 1951,5455 1921,5252 2029,5016 1923,5013 1862,5012 1874,5280 1769,5259 1662,5239 1767,5158 1702,5027 1637,4897 1444,4807 1309,4792 1228,4781 1118,4799 1016,4901 882,5034 788,5241 693,5169 631,5122 928,4881 1022,4685 1053,4620 1035,4620 1000,4511 1407,4121 1807,3681 2213,3291 2398,3824 2575,4383 2759,4915 Z"/>
           <path fill="none" stroke="rgb(0,63,92)" stroke-width="18" stroke-linejoin="round" d="M 2759,4915 C 2778,4895 2715,4939 2745,5002 2876,5190 3068,5554 2964,5588 2848,5617 2809,5262 2621,5089 2507,4982 2368,4915 2260,4967 2191,4998 2087,5183 2086,5317 2083,5507 2202,5735 2114,5759 2093,5767 1974,5614 1951,5455 1921,5252 2029,5016 1923,5013 1862,5012 1874,5280 1769,5259 1662,5239 1767,5158 1702,5027 1637,4897 1444,4807 1309,4792 1228,4781 1118,4799 1016,4901 882,5034 788,5241 693,5169 631,5122 928,4881 1022,4685 1053,4620 1035,4620 1000,4511 1407,4121 1807,3681 2213,3291 2398,3824 2575,4383 2759,4915 Z"/>
          </g>
         </g>
        </g>
        <g class="Group">
         <g class="com.sun.star.drawing.ClosedBezierShape">
          <g id="id11">
           <rect class="BoundingBox" stroke="none" fill="none" x="2194" y="3306" width="1642" height="1619"/>
           <path fill="rgb(100,194,166)" stroke="none" d="M 3826,3797 C 3810,3822 3794,3914 3752,3956 3709,4000 3639,3994 3627,4042 3590,4158 3664,4291 3570,4349 3449,4439 3172,4273 3073,4378 2948,4465 2956,4659 2889,4782 2821,4903 2777,4880 2759,4915 2574,4382 2389,3848 2203,3316 2744,3477 3285,3637 3826,3797 Z"/>
           <path fill="none" stroke="rgb(0,63,92)" stroke-width="18" stroke-linejoin="round" d="M 3826,3797 C 3810,3822 3794,3914 3752,3956 3709,4000 3639,3994 3627,4042 3590,4158 3664,4291 3570,4349 3449,4439 3172,4273 3073,4378 2948,4465 2956,4659 2889,4782 2821,4903 2777,4880 2759,4915 2574,4382 2389,3848 2203,3316 2744,3477 3285,3637 3826,3797 Z"/>
          </g>
         </g>
         <g class="com.sun.star.drawing.ClosedBezierShape">
          <g id="id12">
           <rect class="BoundingBox" stroke="none" fill="none" x="3065" y="4414" width="425" height="377"/>
           <path fill="rgb(100,194,166)" stroke="none" d="M 3109,4773 C 3013,4700 3127,4387 3337,4427 3402,4439 3496,4457 3476,4562 3465,4620 3376,4592 3297,4644 3219,4698 3159,4809 3109,4773 Z"/>
           <path fill="none" stroke="rgb(0,63,92)" stroke-width="18" stroke-linejoin="round" d="M 3109,4773 C 3013,4700 3127,4387 3337,4427 3402,4439 3496,4457 3476,4562 3465,4620 3376,4592 3297,4644 3219,4698 3159,4809 3109,4773 Z"/>
          </g>
         </g>
         <g class="com.sun.star.drawing.ClosedBezierShape">
          <g id="id13">
           <rect class="BoundingBox" stroke="none" fill="none" x="3666" y="4202" width="213" height="402"/>
           <path fill="rgb(100,194,166)" stroke="none" d="M 3711,4401 C 3721,4348 3649,4293 3687,4241 3760,4136 3886,4342 3867,4447 3855,4507 3783,4602 3731,4592 3678,4583 3683,4558 3711,4401 Z"/>
           <path fill="none" stroke="rgb(0,63,92)" stroke-width="18" stroke-linejoin="round" d="M 3711,4401 C 3721,4348 3649,4293 3687,4241 3760,4136 3886,4342 3867,4447 3855,4507 3783,4602 3731,4592 3678,4583 3683,4558 3711,4401 Z"/>
          </g>
         </g>
         <g class="com.sun.star.drawing.ClosedBezierShape">
          <g id="id14">
           <rect class="BoundingBox" stroke="none" fill="none" x="3409" y="4672" width="285" height="250"/>
           <path fill="rgb(100,194,166)" stroke="none" d="M 3471,4888 C 3374,4815 3406,4648 3617,4687 3681,4699 3717,4812 3638,4865 3561,4919 3521,4924 3471,4888 Z"/>
           <path fill="none" stroke="rgb(0,63,92)" stroke-width="18" stroke-linejoin="round" d="M 3471,4888 C 3374,4815 3406,4648 3617,4687 3681,4699 3717,4812 3638,4865 3561,4919 3521,4924 3471,4888 Z"/>
          </g>
         </g>
         <g class="com.sun.star.drawing.ClosedBezierShape">
          <g id="id15">
           <rect class="BoundingBox" stroke="none" fill="none" x="3756" y="4607" width="198" height="146"/>
           <path fill="rgb(100,194,166)" stroke="none" d="M 3808,4620 C 3869,4600 4001,4672 3914,4733 3851,4776 3690,4662 3808,4620 Z"/>
           <path fill="none" stroke="rgb(0,63,92)" stroke-width="18" stroke-linejoin="round" d="M 3808,4620 C 3869,4600 4001,4672 3914,4733 3851,4776 3690,4662 3808,4620 Z"/>
          </g>
         </g>
         <g class="com.sun.star.drawing.CustomShape">
          <g id="id16">
           <rect class="BoundingBox" stroke="none" fill="none" x="3170" y="4559" width="55" height="57"/>
           <path fill="rgb(225,97,115)" stroke="none" d="M 3223,4592 C 3222,4597 3220,4601 3217,4605 3214,4608 3210,4611 3205,4613 3201,4614 3196,4614 3192,4613 3187,4612 3183,4610 3179,4607 3176,4604 3173,4600 3172,4595 3171,4591 3170,4586 3171,4581 3172,4576 3175,4572 3178,4568 3181,4565 3185,4562 3189,4561 3194,4559 3199,4559 3203,4560 3208,4561 3212,4563 3215,4566 3219,4569 3221,4573 3223,4578 3224,4583 3224,4587 3223,4592 L 3223,4592 Z"/>
          </g>
         </g>
         <g class="com.sun.star.drawing.CustomShape">
          <g id="id17">
           <rect class="BoundingBox" stroke="none" fill="none" x="3286" y="4523" width="56" height="58"/>
           <path fill="rgb(225,97,115)" stroke="none" d="M 3340,4557 C 3340,4561 3338,4566 3335,4570 3332,4573 3328,4576 3323,4578 3319,4579 3314,4580 3309,4579 3305,4578 3300,4576 3296,4573 3293,4569 3290,4565 3288,4561 3286,4556 3286,4551 3286,4546 3287,4542 3289,4537 3292,4534 3295,4530 3299,4527 3303,4525 3308,4524 3313,4523 3318,4524 3322,4525 3327,4527 3330,4531 3334,4534 3337,4538 3339,4542 3341,4547 3341,4552 3340,4557 L 3340,4557 Z"/>
          </g>
         </g>
         <g class="com.sun.star.drawing.CustomShape">
          <g id="id18">
           <rect class="BoundingBox" stroke="none" fill="none" x="3401" y="4193" width="74" height="77"/>
           <path fill="rgb(225,97,115)" stroke="none" d="M 3473,4239 C 3472,4245 3469,4251 3465,4256 3461,4261 3456,4264 3449,4266 3443,4268 3437,4269 3431,4267 3424,4266 3419,4263 3414,4259 3409,4254 3405,4249 3403,4243 3401,4236 3401,4230 3402,4223 3403,4217 3406,4211 3410,4206 3414,4201 3419,4198 3425,4196 3432,4194 3438,4193 3444,4195 3451,4196 3456,4199 3461,4203 3466,4208 3470,4213 3472,4220 3474,4226 3474,4232 3473,4239 L 3473,4239 Z"/>
          </g>
         </g>
         <g class="com.sun.star.drawing.CustomShape">
          <g id="id19">
           <rect class="BoundingBox" stroke="none" fill="none" x="3184" y="4179" width="75" height="74"/>
           <path fill="rgb(225,97,115)" stroke="none" d="M 3256,4222 C 3255,4228 3252,4234 3248,4239 3244,4244 3239,4247 3233,4250 3227,4252 3220,4252 3214,4251 3208,4250 3202,4248 3197,4244 3193,4239 3189,4234 3187,4228 3185,4222 3184,4216 3185,4209 3187,4203 3189,4197 3194,4192 3198,4187 3203,4184 3209,4181 3215,4179 3221,4179 3228,4180 3234,4181 3240,4183 3244,4187 3249,4192 3253,4197 3255,4203 3257,4209 3258,4215 3256,4222 L 3256,4222 Z"/>
          </g>
         </g>
         <g class="com.sun.star.drawing.CustomShape">
          <g id="id20">
           <rect class="BoundingBox" stroke="none" fill="none" x="3780" y="4363" width="56" height="58"/>
           <path fill="rgb(225,97,115)" stroke="none" d="M 3834,4397 C 3834,4402 3831,4406 3828,4410 3825,4413 3821,4416 3816,4418 3812,4419 3807,4420 3802,4419 3798,4418 3793,4415 3790,4412 3786,4409 3783,4405 3782,4400 3780,4395 3780,4390 3781,4386 3781,4381 3784,4376 3787,4373 3790,4369 3794,4366 3799,4364 3803,4363 3808,4363 3813,4364 3817,4365 3822,4367 3825,4370 3829,4373 3832,4378 3833,4382 3835,4387 3835,4392 3834,4397 L 3834,4397 Z"/>
          </g>
         </g>
         <g class="com.sun.star.drawing.CustomShape">
          <g id="id21">
           <rect class="BoundingBox" stroke="none" fill="none" x="3520" y="4733" width="57" height="57"/>
           <path fill="rgb(225,97,115)" stroke="none" d="M 3575,4766 C 3575,4770 3572,4775 3569,4779 3566,4782 3562,4785 3557,4787 3553,4788 3548,4789 3543,4788 3539,4787 3534,4785 3530,4781 3527,4778 3524,4774 3522,4770 3521,4765 3520,4760 3521,4755 3522,4751 3524,4746 3528,4743 3531,4739 3535,4736 3539,4735 3544,4733 3549,4733 3553,4734 3558,4734 3563,4737 3566,4740 3570,4743 3573,4747 3574,4751 3576,4756 3576,4761 3575,4766 L 3575,4766 Z"/>
          </g>
         </g>
         <g class="com.sun.star.drawing.CustomShape">
          <g id="id22">
           <rect class="BoundingBox" stroke="none" fill="none" x="3435" y="4006" width="73" height="77"/>
           <path fill="rgb(225,97,115)" stroke="none" d="M 3506,4051 C 3505,4057 3503,4063 3499,4068 3495,4073 3490,4077 3484,4079 3478,4081 3471,4082 3465,4081 3459,4079 3453,4076 3448,4072 3443,4068 3440,4062 3438,4056 3435,4050 3435,4043 3436,4037 3437,4031 3439,4025 3443,4020 3447,4015 3452,4011 3458,4009 3464,4007 3471,4006 3477,4007 3483,4009 3489,4012 3494,4016 3499,4020 3502,4026 3504,4032 3507,4038 3507,4045 3506,4051 L 3506,4051 Z"/>
          </g>
         </g>
         <g class="com.sun.star.drawing.CustomShape">
          <g id="id23">
           <rect class="BoundingBox" stroke="none" fill="none" x="3565" y="3869" width="74" height="78"/>
           <path fill="rgb(225,97,115)" stroke="none" d="M 3567,3900 C 3565,3906 3566,3913 3568,3919 3570,3926 3573,3931 3578,3935 3583,3940 3588,3943 3594,3944 3601,3946 3607,3945 3613,3943 3619,3941 3624,3937 3629,3932 3633,3928 3636,3922 3637,3915 3638,3909 3638,3902 3636,3896 3634,3889 3631,3884 3626,3879 3621,3875 3616,3872 3609,3871 3603,3869 3597,3870 3591,3872 3585,3874 3579,3878 3575,3882 3571,3887 3568,3893 3567,3900 L 3567,3900 Z"/>
          </g>
         </g>
        </g>
        <g class="Group">
         <g class="com.sun.star.drawing.ClosedBezierShape">
          <g id="id24">
           <rect class="BoundingBox" stroke="none" fill="none" x="2200" y="1351" width="2083" height="2479"/>
           <path fill="rgb(170,222,167)" stroke="none" d="M 3277,2000 C 3287,2008 3464,1285 3613,1367 3657,1395 3649,1419 3527,1681 3411,1932 3393,2137 3529,2230 3539,2230 3664,2363 3838,2284 3930,2239 4034,2142 4098,2059 4162,1975 4128,1900 4233,1919 4318,1941 4257,2102 4121,2226 3986,2352 3772,2440 3800,2495 3832,2611 4012,2332 4073,2491 4116,2553 3942,2603 3929,2683 3917,2740 3868,2834 3870,2910 3873,3006 3927,3284 3845,3433 3743,3688 4060,3657 4036,3762 4013,3868 3849,3707 3824,3820 3285,3651 2747,3482 2209,3313 2565,2876 2921,2438 3277,2000 Z"/>
           <path fill="none" stroke="rgb(0,63,92)" stroke-width="18" stroke-linejoin="round" d="M 3277,2000 C 3287,2008 3464,1285 3613,1367 3657,1395 3649,1419 3527,1681 3411,1932 3393,2137 3529,2230 3539,2230 3664,2363 3838,2284 3930,2239 4034,2142 4098,2059 4162,1975 4128,1900 4233,1919 4318,1941 4257,2102 4121,2226 3986,2352 3772,2440 3800,2495 3832,2611 4012,2332 4073,2491 4116,2553 3942,2603 3929,2683 3917,2740 3868,2834 3870,2910 3873,3006 3927,3284 3845,3433 3743,3688 4060,3657 4036,3762 4013,3868 3849,3707 3824,3820 3285,3651 2747,3482 2209,3313 2565,2876 2921,2438 3277,2000 Z"/>
          </g>
         </g>
        </g>
        <g class="Group">
         <g class="Group">
          <g class="com.sun.star.drawing.ClosedBezierShape">
           <g id="id25">
            <rect class="BoundingBox" stroke="none" fill="none" x="456" y="2342" width="1758" height="984"/>
            <path fill="rgb(246,109,68)" stroke="none" d="M 514,3188 C 508,3187 471,3078 481,3026 485,2993 537,3053 587,3044 616,3039 712,2959 669,2895 626,2833 452,2870 467,2804 476,2751 522,2703 549,2655 588,2600 602,2665 666,2621 727,2578 611,2543 632,2506 651,2468 656,2489 694,2463 733,2438 776,2355 814,2351 1274,2677 1737,2997 2203,3315 1641,3273 1078,3231 514,3188 Z"/>
            <path fill="none" stroke="rgb(0,63,92)" stroke-width="18" stroke-linejoin="round" d="M 514,3188 C 508,3187 471,3078 481,3026 485,2993 537,3053 587,3044 616,3039 712,2959 669,2895 626,2833 452,2870 467,2804 476,2751 522,2703 549,2655 588,2600 602,2665 666,2621 727,2578 611,2543 632,2506 651,2468 656,2489 694,2463 733,2438 776,2355 814,2351 1274,2677 1737,2997 2203,3315 1641,3273 1078,3231 514,3188 Z"/>
           </g>
          </g>
         </g>
         <g class="com.sun.star.drawing.CustomShape">
          <g id="id26">
           <rect class="BoundingBox" stroke="none" fill="none" x="537" y="2541" width="55" height="59"/>
           <path fill="rgb(0,63,92)" stroke="none" d="M 590,2576 C 589,2580 587,2585 584,2589 581,2592 577,2595 573,2597 568,2598 563,2598 559,2597 554,2597 550,2594 546,2591 543,2588 540,2584 538,2579 537,2574 537,2569 538,2564 539,2560 541,2555 544,2551 547,2548 551,2545 555,2543 560,2542 565,2542 569,2543 574,2543 578,2546 582,2549 585,2552 588,2556 590,2561 591,2566 591,2571 590,2576 L 590,2576 Z"/>
          </g>
         </g>
         <g class="com.sun.star.drawing.CustomShape">
          <g id="id27">
           <rect class="BoundingBox" stroke="none" fill="none" x="524" y="2907" width="57" height="57"/>
           <path fill="rgb(0,63,92)" stroke="none" d="M 579,2940 C 579,2944 576,2949 573,2953 570,2956 566,2959 561,2961 557,2962 552,2963 547,2962 543,2961 538,2959 534,2955 531,2952 528,2948 526,2944 525,2939 524,2934 525,2929 526,2925 528,2920 532,2917 535,2913 539,2910 543,2909 548,2907 553,2907 557,2908 562,2908 567,2911 570,2914 574,2917 577,2921 578,2925 580,2930 580,2935 579,2940 L 579,2940 Z"/>
          </g>
         </g>
         <g class="com.sun.star.drawing.CustomShape">
          <g id="id28">
           <rect class="BoundingBox" stroke="none" fill="none" x="315" y="2834" width="111" height="112"/>
           <path fill="rgb(0,63,92)" stroke="none" d="M 424,2899 C 422,2909 418,2917 412,2925 406,2932 398,2938 389,2941 380,2944 371,2945 361,2943 352,2942 343,2937 336,2931 328,2925 323,2917 319,2908 316,2899 315,2889 317,2880 318,2871 322,2862 329,2854 335,2847 343,2841 351,2838 360,2835 370,2834 380,2836 389,2838 398,2842 405,2848 412,2854 418,2862 421,2871 425,2880 426,2890 424,2899 L 424,2899 Z"/>
          </g>
         </g>
         <g class="com.sun.star.drawing.CustomShape">
          <g id="id29">
           <rect class="BoundingBox" stroke="none" fill="none" x="1191" y="4559" width="110" height="111"/>
           <path fill="rgb(230,246,157)" stroke="none" d="M 1299,4624 C 1297,4634 1293,4642 1287,4649 1281,4657 1273,4662 1264,4665 1255,4668 1245,4669 1236,4667 1227,4665 1218,4661 1210,4655 1203,4649 1198,4641 1194,4632 1191,4623 1190,4613 1192,4604 1194,4595 1198,4586 1204,4579 1210,4572 1218,4566 1227,4563 1236,4560 1246,4559 1255,4561 1264,4563 1273,4567 1281,4573 1288,4579 1293,4587 1297,4596 1300,4605 1301,4615 1299,4624 L 1299,4624 Z"/>
          </g>
         </g>
         <g class="com.sun.star.drawing.CustomShape">
          <g id="id30">
           <rect class="BoundingBox" stroke="none" fill="none" x="1482" y="4532" width="111" height="111"/>
           <path fill="rgb(230,246,157)" stroke="none" d="M 1591,4597 C 1589,4606 1585,4615 1579,4622 1573,4630 1565,4635 1556,4638 1547,4641 1538,4642 1528,4640 1519,4638 1510,4634 1502,4628 1495,4622 1489,4614 1486,4605 1482,4596 1481,4586 1483,4577 1485,4568 1489,4559 1495,4552 1501,4544 1509,4539 1518,4536 1527,4533 1536,4532 1546,4534 1555,4536 1564,4540 1572,4546 1579,4552 1585,4560 1588,4569 1592,4578 1593,4588 1591,4597 L 1591,4597 Z"/>
          </g>
         </g>
         <g class="com.sun.star.drawing.CustomShape">
          <g id="id31">
           <rect class="BoundingBox" stroke="none" fill="none" x="1728" y="4766" width="111" height="111"/>
           <path fill="rgb(230,246,157)" stroke="none" d="M 1837,4830 C 1836,4839 1832,4848 1825,4856 1819,4863 1811,4868 1802,4872 1793,4875 1784,4876 1774,4874 1765,4873 1756,4869 1748,4863 1741,4856 1735,4849 1732,4840 1728,4831 1727,4821 1729,4812 1730,4803 1734,4794 1741,4786 1747,4779 1755,4774 1764,4770 1773,4767 1782,4766 1792,4768 1801,4769 1810,4773 1818,4779 1825,4786 1831,4793 1834,4802 1838,4811 1839,4821 1837,4830 L 1837,4830 Z"/>
          </g>
         </g>
        </g>
        <g class="com.sun.star.drawing.CustomShape">
         <g id="id32">
          <rect class="BoundingBox" stroke="none" fill="none" x="1535" y="2662" width="1336" height="1334"/>
          <path fill="rgb(255,255,255)" stroke="none" d="M 2853,3423 C 2836,3537 2790,3645 2718,3736 2646,3826 2552,3896 2445,3939 2338,3982 2221,3996 2107,3979 1993,3962 1885,3916 1794,3845 1704,3773 1634,3679 1591,3572 1549,3465 1535,3348 1552,3234 1569,3120 1615,3012 1687,2921 1758,2831 1853,2761 1960,2718 2067,2675 2184,2661 2298,2678 2412,2695 2520,2741 2611,2812 2701,2884 2771,2978 2814,3085 2856,3192 2870,3309 2853,3423 L 2853,3423 Z"/>
          <path fill="none" stroke="rgb(0,63,92)" stroke-width="18" stroke-linejoin="round" d="M 2853,3423 C 2836,3537 2790,3645 2718,3736 2646,3826 2552,3896 2445,3939 2338,3982 2221,3996 2107,3979 1993,3962 1885,3916 1794,3845 1704,3773 1634,3679 1591,3572 1549,3465 1535,3348 1552,3234 1569,3120 1615,3012 1687,2921 1758,2831 1853,2761 1960,2718 2067,2675 2184,2661 2298,2678 2412,2695 2520,2741 2611,2812 2701,2884 2771,2978 2814,3085 2856,3192 2870,3309 2853,3423 L 2853,3423 Z"/>
         </g>
        </g>
       </g>
      </g>
      <g class="com.sun.star.drawing.ClosedBezierShape">
       <g id="id33">
        <rect class="BoundingBox" stroke="none" fill="none" x="1090" y="2143" width="2190" height="2346"/>
        <path fill="rgb(255,255,255)" stroke="none" d="M 3279,3311 C 3279,3486 3254,3646 3203,3792 3152,3937 3079,4061 2983,4164 2887,4267 2772,4347 2638,4403 2504,4460 2353,4488 2187,4488 2023,4488 1874,4460 1740,4403 1606,4347 1491,4267 1395,4164 1299,4061 1225,3937 1171,3792 1117,3646 1090,3486 1090,3311 1090,3136 1118,2977 1173,2833 1228,2689 1304,2566 1402,2465 1499,2363 1615,2284 1749,2228 1883,2171 2029,2143 2187,2143 2348,2143 2495,2171 2629,2228 2763,2284 2878,2363 2974,2465 3070,2566 3145,2689 3199,2833 3252,2977 3279,3136 3279,3311 Z M 2636,3311 C 2636,3117 2597,2964 2519,2852 2442,2741 2331,2685 2187,2685 2043,2685 1931,2741 1852,2852 1773,2964 1734,3117 1734,3311 1734,3506 1773,3660 1852,3775 1931,3889 2043,3946 2187,3946 2331,3946 2442,3889 2519,3775 2597,3660 2636,3506 2636,3311 Z"/>
       </g>
      </g>
      <g class="com.sun.star.drawing.ClosedBezierShape">
       <g id="id34">
        <rect class="BoundingBox" stroke="none" fill="none" x="3539" y="2331" width="2824" height="2090"/>
        <path fill="rgb(255,255,255)" stroke="none" d="M 4661,3336 C 4661,3150 4637,3018 4589,2940 4542,2863 4459,2824 4343,2824 4307,2824 4269,2826 4230,2830 4192,2834 4154,2838 4118,2843 L 4118,4420 3540,4420 3540,2448 C 3589,2435 3646,2421 3712,2407 3778,2393 3848,2380 3922,2368 3996,2356 4071,2347 4149,2341 4227,2334 4303,2331 4378,2331 4525,2331 4645,2350 4737,2387 4829,2425 4904,2469 4964,2521 5047,2462 5142,2415 5249,2382 5357,2348 5456,2331 5546,2331 5709,2331 5843,2354 5948,2399 6053,2444 6136,2508 6198,2591 6260,2674 6303,2772 6326,2886 6350,3000 6361,3127 6361,3267 L 6361,4420 5783,4420 5783,3336 C 5783,3150 5759,3018 5711,2940 5663,2863 5581,2824 5465,2824 5434,2824 5390,2832 5335,2847 5279,2863 5233,2882 5197,2906 5215,2965 5227,3028 5232,3094 5237,3160 5240,3230 5240,3305 L 5240,4420 4661,4420 4661,3336 Z"/>
       </g>
      </g>
      <g class="Group">
       <g class="com.sun.star.drawing.ClosedBezierShape">
        <g id="id35">
         <rect class="BoundingBox" stroke="none" fill="none" x="1183" y="2238" width="2009" height="2152"/>
         <path fill="rgb(0,63,92)" stroke="none" d="M 3190,3310 C 3190,3470 3167,3617 3120,3750 3074,3883 3006,3997 2918,4092 2830,4186 2725,4259 2602,4311 2479,4363 2341,4388 2189,4389 2039,4388 1902,4363 1779,4311 1656,4259 1551,4186 1463,4092 1375,3997 1307,3883 1257,3750 1208,3617 1184,3470 1184,3310 1184,3149 1209,3003 1259,2871 1310,2739 1380,2627 1469,2533 1558,2440 1664,2368 1787,2316 1910,2264 2044,2239 2189,2239 2336,2239 2472,2264 2594,2316 2717,2368 2823,2440 2911,2533 2999,2627 3067,2739 3116,2871 3166,3003 3190,3149 3190,3310 Z M 2600,3310 C 2600,3131 2565,2991 2493,2889 2422,2786 2321,2735 2189,2735 2057,2735 1955,2786 1882,2889 1810,2991 1774,3131 1774,3310 1774,3488 1810,3630 1882,3735 1955,3839 2057,3892 2189,3892 2321,3892 2422,3839 2493,3735 2565,3630 2600,3488 2600,3310 Z"/>
        </g>
       </g>
       <g class="com.sun.star.drawing.ClosedBezierShape">
        <g id="id36">
         <rect class="BoundingBox" stroke="none" fill="none" x="3613" y="2436" width="2567" height="1900"/>
         <path fill="rgb(0,63,92)" stroke="none" d="M 4634,3350 C 4634,3181 4612,3061 4568,2990 4525,2920 4450,2885 4344,2885 4311,2885 4277,2886 4242,2890 4207,2893 4173,2897 4140,2902 L 4140,4335 3614,4335 3614,2542 C 3659,2531 3711,2518 3771,2505 3831,2492 3894,2481 3961,2470 4029,2459 4097,2451 4168,2445 4238,2439 4308,2436 4376,2436 4510,2436 4619,2454 4702,2488 4786,2522 4855,2562 4909,2609 4984,2555 5070,2513 5168,2482 5266,2452 5356,2436 5438,2436 5586,2436 5708,2457 5803,2498 5898,2539 5974,2598 6031,2673 6087,2748 6126,2837 6147,2941 6168,3044 6179,3160 6179,3287 L 6179,4335 5653,4335 5653,3350 C 5653,3181 5631,3061 5588,2990 5544,2920 5470,2885 5364,2885 5336,2885 5296,2892 5246,2906 5195,2920 5153,2937 5120,2959 5137,3013 5147,3070 5152,3130 5157,3190 5159,3254 5159,3322 L 5159,4335 4634,4335 4634,3350 Z"/>
        </g>
       </g>
       <g class="com.sun.star.drawing.ClosedBezierShape">
        <g id="id37">
         <rect class="BoundingBox" stroke="none" fill="none" x="6653" y="2436" width="1604" height="1900"/>
         <path fill="rgb(0,63,92)" stroke="none" d="M 6654,2542 C 6743,2516 6859,2492 7000,2470 7141,2448 7289,2436 7444,2436 7602,2436 7733,2457 7838,2498 7942,2539 8025,2598 8086,2673 8147,2748 8191,2837 8217,2941 8243,3044 8256,3160 8256,3287 L 8256,4335 7730,4335 7730,3350 C 7730,3181 7708,3061 7663,2990 7618,2920 7535,2885 7412,2885 7375,2885 7335,2886 7293,2890 7250,2893 7213,2897 7180,2902 L 7180,4335 6654,4335 6654,2542 Z"/>
        </g>
       </g>
       <g class="com.sun.star.drawing.ClosedBezierShape">
        <g id="id38">
         <rect class="BoundingBox" stroke="none" fill="none" x="8679" y="1632" width="630" height="2704"/>
         <path fill="rgb(0,63,92)" stroke="none" d="M 9258,4335 L 8732,4335 8732,2479 9258,2479 9258,4335 Z M 9307,1943 C 9307,2039 9276,2115 9214,2170 9151,2226 9078,2253 8993,2253 8908,2253 8835,2226 8773,2170 8710,2115 8679,2039 8679,1943 8679,1847 8710,1771 8773,1715 8835,1660 8908,1633 8993,1633 9078,1633 9151,1660 9214,1715 9276,1771 9307,1847 9307,1943 Z"/>
        </g>
       </g>
       <g class="com.sun.star.drawing.ClosedBezierShape">
        <g id="id39">
         <rect class="BoundingBox" stroke="none" fill="none" x="9663" y="1596" width="1727" height="2786"/>
         <path fill="rgb(0,63,92)" stroke="none" d="M 10200,3393 C 10200,3555 10236,3685 10309,3784 10382,3883 10490,3932 10634,3932 10681,3932 10725,3931 10764,3927 10804,3924 10837,3920 10863,3915 L 10863,2959 C 10830,2937 10787,2920 10735,2906 10682,2892 10628,2885 10574,2885 10325,2885 10200,3054 10200,3393 Z M 11389,4275 C 11342,4289 11288,4302 11227,4315 11166,4328 11101,4339 11034,4349 10967,4358 10899,4366 10830,4372 10760,4378 10694,4380 10630,4381 10478,4380 10341,4358 10221,4313 10101,4269 10000,4205 9918,4121 9835,4038 9773,3937 9729,3818 9686,3699 9664,3565 9664,3417 9664,3267 9683,3131 9720,3010 9758,2889 9812,2786 9883,2701 9953,2616 10040,2552 10142,2507 10244,2462 10361,2440 10493,2440 10566,2440 10631,2447 10689,2461 10746,2475 10804,2495 10863,2521 L 10863,1682 11389,1597 11389,4275 Z"/>
        </g>
       </g>
       <g class="com.sun.star.drawing.ClosedBezierShape">
        <g id="id40">
         <rect class="BoundingBox" stroke="none" fill="none" x="11793" y="2429" width="1745" height="1956"/>
         <path fill="rgb(0,63,92)" stroke="none" d="M 11794,3421 C 11794,3256 11819,3112 11870,2989 11920,2865 11987,2762 12069,2680 12151,2598 12246,2535 12353,2493 12460,2451 12570,2430 12683,2430 12946,2430 13154,2510 13307,2671 13460,2832 13537,3069 13537,3382 13537,3412 13535,3446 13533,3482 13531,3519 13528,3551 13526,3579 L 12334,3579 C 12345,3687 12396,3773 12485,3837 12575,3900 12695,3932 12845,3932 12942,3932 13036,3923 13129,3906 13222,3888 13298,3866 13357,3840 L 13427,4267 C 13399,4281 13361,4295 13314,4309 13267,4324 13215,4336 13157,4346 13100,4357 13038,4366 12972,4373 12906,4380 12840,4383 12775,4384 12608,4383 12462,4359 12339,4309 12215,4260 12113,4192 12032,4107 11951,4021 11891,3919 11852,3802 11813,3684 11794,3557 11794,3421 Z M 13029,3220 C 13026,3175 13019,3131 13006,3089 12993,3047 12973,3009 12946,2976 12919,2943 12885,2916 12843,2895 12802,2874 12751,2863 12690,2863 12631,2863 12581,2873 12538,2893 12496,2913 12461,2940 12432,2973 12404,3006 12382,3044 12367,3087 12352,3131 12341,3175 12334,3220 L 13029,3220 Z"/>
        </g>
       </g>
       <g class="com.sun.star.drawing.ClosedBezierShape">
        <g id="id41">
         <rect class="BoundingBox" stroke="none" fill="none" x="13850" y="2428" width="1502" height="1957"/>
         <path fill="rgb(0,63,92)" stroke="none" d="M 13851,3406 C 13851,3272 13873,3146 13916,3027 13960,2908 14022,2805 14105,2716 14187,2628 14287,2558 14405,2507 14522,2455 14656,2429 14807,2429 14906,2429 14996,2438 15079,2455 15161,2473 15241,2498 15318,2531 L 15209,2951 C 15160,2932 15106,2916 15047,2902 14988,2888 14922,2881 14849,2881 14694,2881 14578,2929 14502,3025 14425,3122 14387,3249 14387,3406 14387,3573 14423,3703 14495,3794 14566,3886 14692,3932 14870,3932 14934,3932 15002,3926 15075,3914 15148,3903 15215,3884 15276,3858 L 15350,4288 C 15289,4314 15213,4336 15121,4355 15029,4374 14928,4383 14817,4384 14648,4383 14502,4358 14380,4308 14258,4257 14157,4188 14078,4101 14000,4014 13942,3911 13905,3793 13869,3674 13851,3545 13851,3406 Z"/>
        </g>
       </g>
       <g class="com.sun.star.drawing.ClosedBezierShape">
        <g id="id42">
         <rect class="BoundingBox" stroke="none" fill="none" x="15527" y="2428" width="1826" height="1957"/>
         <path fill="rgb(0,63,92)" stroke="none" d="M 17352,3403 C 17352,3549 17331,3682 17288,3803 17246,3924 17185,4028 17105,4114 17025,4199 16929,4266 16817,4313 16706,4360 16580,4383 16442,4384 16305,4383 16181,4360 16069,4313 15958,4266 15862,4199 15782,4114 15702,4028 15639,3924 15595,3803 15550,3682 15528,3549 15528,3403 15528,3257 15551,3124 15597,3004 15642,2884 15706,2782 15787,2697 15868,2612 15965,2547 16076,2500 16188,2452 16310,2429 16442,2429 16576,2429 16698,2452 16810,2500 16922,2547 17018,2612 17098,2697 17178,2782 17240,2884 17285,3004 17329,3124 17352,3257 17352,3403 Z M 16815,3403 C 16815,3240 16783,3113 16718,3020 16654,2927 16561,2881 16442,2881 16322,2881 16229,2927 16163,3020 16097,3113 16064,3240 16064,3403 16064,3565 16097,3694 16163,3789 16229,3884 16322,3932 16442,3932 16561,3932 16654,3884 16718,3789 16783,3694 16815,3565 16815,3403 Z"/>
        </g>
       </g>
       <g class="com.sun.star.drawing.ClosedBezierShape">
        <g id="id43">
         <rect class="BoundingBox" stroke="none" fill="none" x="17757" y="2436" width="1604" height="1900"/>
         <path fill="rgb(0,63,92)" stroke="none" d="M 17758,2542 C 17847,2516 17963,2492 18104,2470 18245,2448 18393,2436 18548,2436 18706,2436 18837,2457 18942,2498 19046,2539 19129,2598 19190,2673 19251,2748 19295,2837 19321,2941 19347,3044 19360,3160 19360,3287 L 19360,4335 18834,4335 18834,3350 C 18834,3181 18812,3061 18767,2990 18722,2920 18639,2885 18516,2885 18479,2885 18439,2886 18397,2890 18354,2893 18317,2897 18284,2902 L 18284,4335 17758,4335 17758,2542 Z"/>
        </g>
       </g>
       <g class="com.sun.star.drawing.ClosedBezierShape">
        <g id="id44">
         <rect class="BoundingBox" stroke="none" fill="none" x="19565" y="2479" width="1872" height="1857"/>
         <path fill="rgb(0,63,92)" stroke="none" d="M 20281,4335 C 20162,4099 20040,3824 19916,3509 19793,3194 19676,2851 19565,2479 L 20123,2479 C 20146,2571 20174,2670 20206,2777 20237,2884 20270,2992 20304,3102 20339,3211 20373,3317 20407,3421 20441,3524 20474,3618 20507,3703 20538,3618 20571,3524 20606,3421 20641,3317 20676,3211 20710,3102 20744,2992 20777,2884 20809,2777 20841,2670 20868,2571 20892,2479 L 21435,2479 C 21325,2851 21208,3194 21084,3509 20961,3824 20839,4099 20719,4335 L 20281,4335 Z"/>
        </g>
       </g>
      </g>
     </g>
    </g>
   </g>
  </g>
 </g>
</svg>
