<?xml version="1.0" encoding="UTF-8"?>
<!DOCTYPE svg PUBLIC "-//W3C//DTD SVG 1.1//EN" "http://www.w3.org/Graphics/SVG/1.1/DTD/svg11.dtd">
<svg version="1.2" width="55mm" height="55mm" viewBox="0 0 5500 5500" preserveAspectRatio="xMidYMid" fill-rule="evenodd" stroke-width="28.222" stroke-linejoin="round" xmlns="http://www.w3.org/2000/svg" xmlns:ooo="http://xml.openoffice.org/svg/export" xmlns:xlink="http://www.w3.org/1999/xlink" xmlns:presentation="http://sun.com/xmlns/staroffice/presentation" xmlns:smil="http://www.w3.org/2001/SMIL20/" xmlns:anim="urn:oasis:names:tc:opendocument:xmlns:animation:1.0" xml:space="preserve">
 <defs class="ClipPathGroup">
  <clipPath id="presentation_clip_path" clipPathUnits="userSpaceOnUse">
   <rect x="0" y="0" width="5500" height="5500"/>
  </clipPath>
  <clipPath id="presentation_clip_path_shrink" clipPathUnits="userSpaceOnUse">
   <rect x="5" y="5" width="5489" height="5489"/>
  </clipPath>
 </defs>
 <defs class="TextShapeIndex">
  <g ooo:slide="id1" ooo:id-list="id3 id4 id5 id6 id7 id8 id9 id10 id11 id12 id13 id14 id15 id16 id17 id18 id19 id20 id21 id22 id23 id24 id25 id26 id27 id28 id29 id30 id31 id32 id33 id34"/>
 </defs>
 <defs class="EmbeddedBulletChars">
  <g id="bullet-char-template-57356" transform="scale(0.00048828125,-0.00048828125)">
   <path d="M 580,1141 L 1163,571 580,0 -4,571 580,1141 Z"/>
  </g>
  <g id="bullet-char-template-57354" transform="scale(0.00048828125,-0.00048828125)">
   <path d="M 8,1128 L 1137,1128 1137,0 8,0 8,1128 Z"/>
  </g>
  <g id="bullet-char-template-10146" transform="scale(0.00048828125,-0.00048828125)">
   <path d="M 174,0 L 602,739 174,1481 1456,739 174,0 Z M 1358,739 L 309,1346 659,739 1358,739 Z"/>
  </g>
  <g id="bullet-char-template-10132" transform="scale(0.00048828125,-0.00048828125)">
   <path d="M 2015,739 L 1276,0 717,0 1260,543 174,543 174,936 1260,936 717,1481 1274,1481 2015,739 Z"/>
  </g>
  <g id="bullet-char-template-10007" transform="scale(0.00048828125,-0.00048828125)">
   <path d="M 0,-2 C -7,14 -16,27 -25,37 L 356,567 C 262,823 215,952 215,954 215,979 228,992 255,992 264,992 276,990 289,987 310,991 331,999 354,1012 L 381,999 492,748 772,1049 836,1024 860,1049 C 881,1039 901,1025 922,1006 886,937 835,863 770,784 769,783 710,716 594,584 L 774,223 C 774,196 753,168 711,139 L 727,119 C 717,90 699,76 672,76 641,76 570,178 457,381 L 164,-76 C 142,-110 111,-127 72,-127 30,-127 9,-110 8,-76 1,-67 -2,-52 -2,-32 -2,-23 -1,-13 0,-2 Z"/>
  </g>
  <g id="bullet-char-template-10004" transform="scale(0.00048828125,-0.00048828125)">
   <path d="M 285,-33 C 182,-33 111,30 74,156 52,228 41,333 41,471 41,549 55,616 82,672 116,743 169,778 240,778 293,778 328,747 346,684 L 369,508 C 377,444 397,411 428,410 L 1163,1116 C 1174,1127 1196,1133 1229,1133 1271,1133 1292,1118 1292,1087 L 1292,965 C 1292,929 1282,901 1262,881 L 442,47 C 390,-6 338,-33 285,-33 Z"/>
  </g>
  <g id="bullet-char-template-9679" transform="scale(0.00048828125,-0.00048828125)">
   <path d="M 813,0 C 632,0 489,54 383,161 276,268 223,411 223,592 223,773 276,916 383,1023 489,1130 632,1184 813,1184 992,1184 1136,1130 1245,1023 1353,916 1407,772 1407,592 1407,412 1353,268 1245,161 1136,54 992,0 813,0 Z"/>
  </g>
  <g id="bullet-char-template-8226" transform="scale(0.00048828125,-0.00048828125)">
   <path d="M 346,457 C 273,457 209,483 155,535 101,586 74,649 74,723 74,796 101,859 155,911 209,963 273,989 346,989 419,989 480,963 531,910 582,859 608,796 608,723 608,648 583,586 532,535 482,483 420,457 346,457 Z"/>
  </g>
  <g id="bullet-char-template-8211" transform="scale(0.00048828125,-0.00048828125)">
   <path d="M -4,459 L 1135,459 1135,606 -4,606 -4,459 Z"/>
  </g>
  <g id="bullet-char-template-61548" transform="scale(0.00048828125,-0.00048828125)">
   <path d="M 173,740 C 173,903 231,1043 346,1159 462,1274 601,1332 765,1332 928,1332 1067,1274 1183,1159 1299,1043 1357,903 1357,740 1357,577 1299,437 1183,322 1067,206 928,148 765,148 601,148 462,206 346,322 231,437 173,577 173,740 Z"/>
  </g>
 </defs>
 <g>
  <g id="id2" class="Master_Slide">
   <g id="bg-id2" class="Background"/>
   <g id="bo-id2" class="BackgroundObjects"/>
  </g>
 </g>
 <g class="SlideGroup">
  <g>
   <g id="container-id1">
    <g id="id1" class="Slide" clip-path="url(#presentation_clip_path)">
     <g class="Page">
      <g class="Group">
       <g class="Group">
        <g class="Group">
         <g class="com.sun.star.drawing.ClosedBezierShape">
          <g id="id3">
           <rect class="BoundingBox" stroke="none" fill="none" x="309" y="143" width="2640" height="2845"/>
           <path fill="rgb(254,174,101)" stroke="none" d="M 1267,2680 C 1270,2666 1273,2651 1276,2638 1279,2623 1283,2610 1285,2595 1288,2581 1292,2568 1295,2553 1299,2539 1303,2525 1306,2510 1310,2497 1315,2483 1319,2469 1323,2456 1327,2442 1332,2429 1337,2415 1342,2402 1347,2388 1351,2373 1357,2361 1362,2347 1367,2333 1373,2321 1378,2307 1384,2294 1390,2281 1396,2268 1402,2255 1421,2240 1455,2152 1456,2042 1415,1955 1261,1924 1211,1906 1007,2082 816,2146 702,2184 556,2145 530,2106 519,2094 541,2047 569,2041 616,2033 706,2104 758,2091 944,2035 1194,1885 1182,1834 1104,1735 927,1599 777,1546 530,1460 323,1615 322,1495 320,1388 746,1480 751,1443 760,1399 709,1284 699,1233 691,1184 738,1168 751,1220 777,1325 848,1416 934,1507 1122,1708 1396,1901 1534,1911 1653,1944 1865,1796 1807,1677 1748,1548 1772,1270 1692,1214 1539,1158 1445,1109 1197,1228 1041,1295 1040,1375 1014,1384 977,1349 973,1348 952,1308 940,1257 1200,1136 1306,1110 1293,1057 1211,942 1104,897 999,854 861,944 848,891 835,840 1062,798 1192,875 1323,954 1350,1060 1410,1084 1445,1098 1753,1151 1749,1109 1739,961 1441,788 1292,614 1145,441 1077,308 1150,261 1179,241 1253,236 1228,354 1209,438 1308,527 1331,549 1365,463 1515,170 1566,157 1618,144 1682,201 1591,259 1452,441 1388,559 1396,588 1412,662 1487,728 1540,714 1576,702 1618,584 1656,518 1696,454 1795,481 1756,550 1715,611 1631,637 1606,758 1622,887 1774,766 1838,1249 1826,1641 1970,1576 1975,1580 1986,1572 1999,1563 2011,1556 2023,1548 2035,1540 2047,1532 2060,1525 2072,1517 2085,1510 2096,1502 2109,1496 2122,1488 2135,1482 2147,1475 2160,1469 2173,1462 2187,1456 2199,1449 2213,1443 2225,1437 2237,1431 2251,1425 2264,1419 2278,1413 2291,1409 2305,1403 2318,1397 2332,1392 2345,1386 2358,1381 2373,1377 2386,1373 2400,1368 2413,1363 2428,1358 2441,1354 2455,1350 2469,1347 2483,1344 2497,1339 2510,1335 2525,1331 2662,1879 2798,2426 2935,2974 2379,2877 1824,2778 1267,2680 Z"/>
           <path fill="none" stroke="rgb(52,101,164)" stroke-width="25" stroke-linejoin="round" d="M 1267,2680 C 1270,2666 1273,2651 1276,2638 1279,2623 1283,2610 1285,2595 1288,2581 1292,2568 1295,2553 L 1306,2510 C 1310,2497 1315,2483 1319,2469 1323,2456 1327,2442 1332,2429 L 1347,2388 C 1351,2373 1357,2361 1362,2347 1367,2333 1373,2321 1378,2307 L 1396,2268 C 1402,2255 1421,2240 1455,2152 1456,2042 1415,1955 1261,1924 1211,1906 1007,2082 816,2146 702,2184 556,2145 530,2106 519,2094 541,2047 569,2041 616,2033 706,2104 758,2091 944,2035 1194,1885 1182,1834 1104,1735 927,1599 777,1546 530,1460 323,1615 322,1495 320,1388 746,1480 751,1443 760,1399 709,1284 699,1233 691,1184 738,1168 751,1220 777,1325 848,1416 934,1507 1122,1708 1396,1901 1534,1911 1653,1944 1865,1796 1807,1677 1748,1548 1772,1270 1692,1214 1539,1158 1445,1109 1197,1228 1041,1295 1040,1375 1014,1384 977,1349 973,1348 952,1308 940,1257 1200,1136 1306,1110 1293,1057 1211,942 1104,897 999,854 861,944 848,891 835,840 1062,798 1192,875 1323,954 1350,1060 1410,1084 1445,1098 1753,1151 1749,1109 1739,961 1441,788 1292,614 1145,441 1077,308 1150,261 1179,241 1253,236 1228,354 1209,438 1308,527 1331,549 1365,463 1515,170 1566,157 1618,144 1682,201 1591,259 1452,441 1388,559 1396,588 1412,662 1487,728 1540,714 1576,702 1618,584 1656,518 1696,454 1795,481 1756,550 1715,611 1631,637 1606,758 1622,887 1774,766 1838,1249 1826,1641 1970,1576 1975,1580 1986,1572 1999,1563 2011,1556 2023,1548 2035,1540 2047,1532 L 2085,1510 C 2096,1502 2109,1496 2122,1488 2135,1482 2147,1475 2160,1469 2173,1462 2187,1456 2199,1449 2213,1443 2225,1437 2237,1431 2251,1425 2264,1419 2278,1413 2291,1409 2305,1403 2318,1397 2332,1392 2345,1386 2358,1381 2373,1377 2386,1373 2400,1368 2413,1363 2428,1358 2441,1354 L 2483,1344 C 2497,1339 2510,1335 2525,1331 L 2935,2974 C 2379,2877 1824,2778 1267,2680 Z"/>
          </g>
         </g>
        </g>
        <g class="Group">
         <g class="com.sun.star.drawing.ClosedBezierShape">
          <g id="id4">
           <rect class="BoundingBox" stroke="none" fill="none" x="1193" y="2970" width="1758" height="1748"/>
           <path fill="rgb(225,97,115)" stroke="none" d="M 2336,4566 C 2327,4562 2266,4540 2252,4568 2229,4611 2236,4734 2174,4697 2109,4658 2148,4601 2135,4540 2125,4498 2073,4470 2005,4462 1914,4478 1848,4723 1770,4631 1740,4597 1825,4526 1835,4450 1845,4372 1784,4286 1744,4306 1653,4292 1587,4566 1522,4528 1392,4449 1535,4358 1575,4292 1653,4162 1645,4172 1575,4071 1496,3979 1366,4124 1288,4031 1275,3980 1484,3928 1458,3824 1351,3741 1223,3771 1210,3719 1181,3647 1314,3693 1351,3577 1880,3379 2408,3181 2937,2983 2737,3511 2537,4038 2336,4566 Z"/>
           <path fill="none" stroke="rgb(52,101,164)" stroke-width="25" stroke-linejoin="round" d="M 2336,4566 C 2327,4562 2266,4540 2252,4568 2229,4611 2236,4734 2174,4697 2109,4658 2148,4601 2135,4540 2125,4498 2073,4470 2005,4462 1914,4478 1848,4723 1770,4631 1740,4597 1825,4526 1835,4450 1845,4372 1784,4286 1744,4306 1653,4292 1587,4566 1522,4528 1392,4449 1535,4358 1575,4292 1653,4162 1645,4172 1575,4071 1496,3979 1366,4124 1288,4031 1275,3980 1484,3928 1458,3824 1351,3741 1223,3771 1210,3719 1181,3647 1314,3693 1351,3577 1880,3379 2408,3181 2937,2983 2737,3511 2537,4038 2336,4566 Z"/>
          </g>
         </g>
        </g>
        <g class="Group">
         <g class="com.sun.star.drawing.ClosedBezierShape">
          <g id="id5">
           <rect class="BoundingBox" stroke="none" fill="none" x="2512" y="1148" width="861" height="1887"/>
           <path fill="rgb(230,246,157)" stroke="none" d="M 2525,1332 C 2524,1328 2552,1323 2599,1322 2640,1322 2609,1240 2643,1241 2663,1243 2685,1279 2708,1280 2727,1283 2723,1214 2747,1215 2755,1214 2784,1248 2811,1254 2828,1255 2833,1188 2851,1189 2904,1176 2864,1241 2917,1228 2969,1214 2904,1176 2956,1163 3008,1150 2969,1214 3021,1201 3073,1188 3059,1233 3086,1241 3130,1254 3112,1224 3137,1228 3164,1228 3125,1254 3150,1279 3159,1291 3173,1260 3202,1266 3225,1272 3195,1309 3216,1320 3251,1335 3354,1344 3359,1344 3225,1893 3081,2473 2946,3021 2809,2473 2661,1878 2525,1332 Z"/>
           <path fill="none" stroke="rgb(52,101,164)" stroke-width="25" stroke-linejoin="round" d="M 2525,1332 C 2524,1328 2552,1323 2599,1322 2640,1322 2609,1240 2643,1241 2663,1243 2685,1279 2708,1280 2727,1283 2723,1214 2747,1215 2755,1214 2784,1248 2811,1254 2828,1255 2833,1188 2851,1189 2904,1176 2864,1241 2917,1228 2969,1214 2904,1176 2956,1163 3008,1150 2969,1214 3021,1201 3073,1188 3059,1233 3086,1241 3130,1254 3112,1224 3137,1228 3164,1228 3125,1254 3150,1279 3159,1291 3173,1260 3202,1266 3225,1272 3195,1309 3216,1320 3251,1335 3354,1344 3359,1344 3225,1893 3081,2473 2946,3021 2809,2473 2661,1878 2525,1332 Z"/>
          </g>
         </g>
         <g class="com.sun.star.drawing.CustomShape">
          <g id="id6">
           <rect class="BoundingBox" stroke="none" fill="none" x="2631" y="1383" width="111" height="111"/>
           <path fill="rgb(52,101,164)" stroke="none" d="M 2738,1425 C 2741,1434 2740,1444 2738,1453 2735,1462 2730,1470 2723,1477 2716,1484 2708,1488 2699,1490 2690,1493 2680,1492 2671,1490 2662,1487 2654,1482 2647,1475 2640,1468 2636,1460 2634,1451 2631,1442 2632,1432 2634,1423 2637,1414 2642,1406 2649,1399 2656,1392 2664,1388 2673,1386 2682,1383 2692,1384 2701,1386 2710,1389 2718,1394 2725,1401 2732,1408 2736,1416 2738,1425 L 2738,1425 Z"/>
          </g>
         </g>
         <g class="com.sun.star.drawing.CustomShape">
          <g id="id7">
           <rect class="BoundingBox" stroke="none" fill="none" x="2849" y="1372" width="58" height="57"/>
           <path fill="rgb(52,101,164)" stroke="none" d="M 2904,1394 C 2906,1399 2905,1404 2904,1408 2903,1413 2900,1417 2897,1420 2893,1424 2889,1426 2884,1427 2879,1428 2875,1428 2870,1427 2865,1425 2861,1423 2858,1419 2854,1415 2852,1411 2851,1406 2850,1402 2850,1397 2851,1392 2852,1388 2855,1384 2859,1380 2862,1377 2866,1375 2871,1374 2876,1373 2881,1373 2885,1374 2890,1376 2894,1378 2898,1382 2901,1385 2903,1390 2904,1394 L 2904,1394 Z"/>
          </g>
         </g>
         <g class="com.sun.star.drawing.CustomShape">
          <g id="id8">
           <rect class="BoundingBox" stroke="none" fill="none" x="3023" y="1397" width="113" height="110"/>
           <path fill="rgb(52,101,164)" stroke="none" d="M 3133,1438 C 3135,1448 3135,1457 3132,1466 3130,1476 3125,1484 3118,1490 3111,1497 3103,1502 3093,1504 3084,1506 3074,1506 3065,1504 3055,1501 3047,1496 3040,1489 3033,1482 3028,1474 3026,1465 3023,1455 3023,1446 3026,1437 3028,1427 3033,1419 3040,1412 3047,1406 3056,1401 3065,1399 3074,1397 3084,1397 3094,1399 3103,1402 3112,1407 3118,1414 3125,1421 3130,1429 3133,1438 L 3133,1438 Z"/>
          </g>
         </g>
         <g class="com.sun.star.drawing.CustomShape">
          <g id="id9">
           <rect class="BoundingBox" stroke="none" fill="none" x="2822" y="1487" width="57" height="57"/>
           <path fill="rgb(52,101,164)" stroke="none" d="M 2876,1509 C 2877,1513 2877,1518 2876,1523 2875,1528 2872,1532 2869,1535 2865,1539 2861,1541 2856,1542 2851,1543 2847,1543 2842,1542 2837,1540 2833,1538 2830,1534 2826,1531 2824,1527 2823,1522 2822,1517 2822,1512 2823,1508 2825,1503 2827,1499 2831,1496 2834,1492 2838,1490 2843,1489 2848,1488 2853,1488 2857,1489 2862,1490 2866,1493 2869,1496 2873,1500 2875,1504 2876,1509 L 2876,1509 Z"/>
          </g>
         </g>
        </g>
        <g class="Group">
         <g class="com.sun.star.drawing.ClosedBezierShape">
          <g id="id10">
           <rect class="BoundingBox" stroke="none" fill="none" x="2298" y="2940" width="2300" height="2368"/>
           <path fill="rgb(45,135,187)" stroke="none" d="M 4102,4180 C 4098,4168 4075,4245 4128,4290 4326,4407 4652,4659 4571,4733 4477,4807 4294,4501 4052,4420 3904,4371 3750,4367 3673,4459 3623,4516 3604,4726 3659,4850 3735,5024 3938,5183 3867,5241 3852,5257 3681,5167 3593,5032 3482,4859 3484,4599 3385,4641 3328,4665 3451,4903 3347,4929 3241,4955 3303,4838 3190,4745 3077,4654 2863,4652 2735,4694 2656,4718 2563,4779 2513,4915 2446,5091 2447,5319 2330,5292 2254,5275 2424,4933 2429,4716 2430,4644 2407,4630 2330,4545 2539,4021 2727,3477 2935,2953 3325,3362 3714,3772 4102,4180 Z"/>
           <path fill="none" stroke="rgb(52,101,164)" stroke-width="25" stroke-linejoin="round" d="M 4102,4180 C 4098,4168 4075,4245 4128,4290 4326,4407 4652,4659 4571,4733 4477,4807 4294,4501 4052,4420 3904,4371 3750,4367 3673,4459 3623,4516 3604,4726 3659,4850 3735,5024 3938,5183 3867,5241 3852,5257 3681,5167 3593,5032 3482,4859 3484,4599 3385,4641 3328,4665 3451,4903 3347,4929 3241,4955 3303,4838 3190,4745 3077,4654 2863,4652 2735,4694 2656,4718 2563,4779 2513,4915 2446,5091 2447,5319 2330,5292 2254,5275 2424,4933 2429,4716 2430,4644 2407,4630 2330,4545 2539,4021 2727,3477 2935,2953 3325,3362 3714,3772 4102,4180 Z"/>
          </g>
         </g>
        </g>
        <g class="Group">
         <g class="com.sun.star.drawing.ClosedBezierShape">
          <g id="id11">
           <rect class="BoundingBox" stroke="none" fill="none" x="2924" y="2733" width="1716" height="1486"/>
           <path fill="rgb(100,194,166)" stroke="none" d="M 4613,2746 C 4609,2775 4632,2866 4611,2921 4591,2979 4524,3002 4533,3051 4548,3172 4671,3262 4609,3354 4536,3486 4216,3450 4168,3586 4091,3717 4178,3891 4169,4030 4157,4168 4107,4166 4105,4205 3716,3797 3326,3388 2937,2980 3495,2903 4054,2824 4613,2746 Z"/>
           <path fill="none" stroke="rgb(52,101,164)" stroke-width="25" stroke-linejoin="round" d="M 4613,2746 C 4609,2775 4632,2866 4611,2921 4591,2979 4524,3002 4533,3051 4548,3172 4671,3262 4609,3354 4536,3486 4216,3450 4168,3586 4091,3717 4178,3891 4169,4030 4157,4168 4107,4166 4105,4205 3716,3797 3326,3388 2937,2980 3495,2903 4054,2824 4613,2746 Z"/>
          </g>
         </g>
         <g class="com.sun.star.drawing.ClosedBezierShape">
          <g id="id12">
           <rect class="BoundingBox" stroke="none" fill="none" x="4261" y="3494" width="366" height="452"/>
           <path fill="rgb(100,194,166)" stroke="none" d="M 4365,3931 C 4247,3905 4221,3572 4429,3521 4493,3505 4586,3483 4612,3586 4626,3644 4533,3655 4483,3736 4434,3818 4426,3943 4365,3931 Z"/>
           <path fill="none" stroke="rgb(52,101,164)" stroke-width="25" stroke-linejoin="round" d="M 4365,3931 C 4247,3905 4221,3572 4429,3521 4493,3505 4586,3483 4612,3586 4626,3644 4533,3655 4483,3736 4434,3818 4426,3943 4365,3931 Z"/>
          </g>
         </g>
         <g class="com.sun.star.drawing.ClosedBezierShape">
          <g id="id13">
           <rect class="BoundingBox" stroke="none" fill="none" x="4656" y="3144" width="281" height="382"/>
           <path fill="rgb(100,194,166)" stroke="none" d="M 4759,3342 C 4746,3290 4657,3270 4670,3207 4693,3082 4893,3217 4919,3321 4933,3380 4908,3496 4856,3509 4804,3522 4798,3498 4759,3342 Z"/>
           <path fill="none" stroke="rgb(52,101,164)" stroke-width="25" stroke-linejoin="round" d="M 4759,3342 C 4746,3290 4657,3270 4670,3207 4693,3082 4893,3217 4919,3321 4933,3380 4908,3496 4856,3509 4804,3522 4798,3498 4759,3342 Z"/>
          </g>
         </g>
         <g class="com.sun.star.drawing.ClosedBezierShape">
          <g id="id14">
           <rect class="BoundingBox" stroke="none" fill="none" x="4631" y="3627" width="283" height="276"/>
           <path fill="rgb(100,194,166)" stroke="none" d="M 4742,3885 C 4624,3859 4583,3694 4792,3642 4855,3626 4935,3714 4885,3795 4837,3876 4802,3898 4742,3885 Z"/>
           <path fill="none" stroke="rgb(52,101,164)" stroke-width="25" stroke-linejoin="round" d="M 4742,3885 C 4624,3859 4583,3694 4792,3642 4855,3626 4935,3714 4885,3795 4837,3876 4802,3898 4742,3885 Z"/>
          </g>
         </g>
         <g class="com.sun.star.drawing.ClosedBezierShape">
          <g id="id15">
           <rect class="BoundingBox" stroke="none" fill="none" x="4901" y="3464" width="205" height="144"/>
           <path fill="rgb(100,194,166)" stroke="none" d="M 4937,3502 C 4985,3458 5135,3469 5081,3561 5042,3626 4848,3589 4937,3502 Z"/>
           <path fill="none" stroke="rgb(52,101,164)" stroke-width="25" stroke-linejoin="round" d="M 4937,3502 C 4985,3458 5135,3469 5081,3561 5042,3626 4848,3589 4937,3502 Z"/>
          </g>
         </g>
         <g class="com.sun.star.drawing.CustomShape">
          <g id="id16">
           <rect class="BoundingBox" stroke="none" fill="none" x="4341" y="3696" width="55" height="57"/>
           <path fill="rgb(225,97,115)" stroke="none" d="M 4393,3719 C 4395,3723 4394,3728 4393,3733 4392,3738 4389,3742 4386,3745 4382,3748 4378,3750 4373,3751 4369,3752 4364,3752 4360,3750 4355,3749 4351,3746 4348,3743 4345,3739 4343,3735 4342,3730 4341,3725 4341,3720 4342,3716 4344,3711 4346,3707 4350,3704 4353,3701 4357,3699 4362,3698 4366,3697 4371,3697 4375,3698 4380,3700 4384,3702 4387,3706 4390,3710 4392,3714 4393,3719 L 4393,3719 Z"/>
          </g>
         </g>
         <g class="com.sun.star.drawing.CustomShape">
          <g id="id17">
           <rect class="BoundingBox" stroke="none" fill="none" x="4430" y="3618" width="58" height="56"/>
           <path fill="rgb(225,97,115)" stroke="none" d="M 4485,3639 C 4487,3643 4487,3648 4486,3653 4484,3658 4482,3662 4479,3665 4475,3668 4471,3671 4466,3672 4461,3673 4457,3673 4452,3672 4447,3670 4443,3668 4439,3664 4436,3661 4433,3657 4432,3652 4431,3647 4431,3642 4432,3638 4433,3633 4435,3629 4439,3626 4442,3622 4446,3620 4451,3619 4456,3618 4461,3618 4465,3619 4470,3620 4474,3623 4478,3626 4481,3630 4484,3634 4485,3639 L 4485,3639 Z"/>
          </g>
         </g>
         <g class="com.sun.star.drawing.CustomShape">
          <g id="id18">
           <rect class="BoundingBox" stroke="none" fill="none" x="4402" y="3265" width="76" height="75"/>
           <path fill="rgb(225,97,115)" stroke="none" d="M 4475,3294 C 4477,3300 4477,3307 4475,3313 4473,3319 4470,3325 4465,3329 4460,3333 4455,3336 4448,3338 4442,3339 4436,3339 4429,3337 4423,3335 4418,3331 4413,3327 4409,3322 4405,3316 4404,3310 4402,3303 4402,3297 4404,3291 4406,3285 4409,3279 4414,3275 4419,3270 4424,3267 4431,3266 4437,3265 4443,3265 4450,3267 4456,3269 4461,3272 4466,3277 4470,3282 4474,3288 4475,3294 L 4475,3294 Z"/>
          </g>
         </g>
         <g class="com.sun.star.drawing.CustomShape">
          <g id="id19">
           <rect class="BoundingBox" stroke="none" fill="none" x="4200" y="3340" width="74" height="76"/>
           <path fill="rgb(225,97,115)" stroke="none" d="M 4271,3368 C 4272,3375 4272,3381 4271,3387 4269,3393 4266,3399 4261,3404 4257,3408 4251,3411 4245,3413 4239,3415 4232,3414 4226,3413 4220,3411 4215,3408 4210,3403 4206,3399 4203,3393 4201,3387 4200,3380 4200,3374 4202,3368 4203,3362 4207,3356 4211,3351 4216,3347 4221,3344 4227,3342 4233,3340 4240,3341 4246,3342 4252,3344 4257,3347 4262,3352 4266,3356 4269,3362 4271,3368 L 4271,3368 Z"/>
          </g>
         </g>
         <g class="com.sun.star.drawing.CustomShape">
          <g id="id20">
           <rect class="BoundingBox" stroke="none" fill="none" x="4814" y="3266" width="58" height="57"/>
           <path fill="rgb(225,97,115)" stroke="none" d="M 4869,3288 C 4870,3293 4870,3298 4869,3302 4868,3307 4865,3311 4862,3314 4858,3318 4854,3320 4849,3321 4844,3322 4840,3322 4835,3320 4830,3319 4826,3316 4823,3313 4819,3309 4817,3305 4816,3300 4814,3295 4815,3290 4816,3286 4817,3281 4820,3277 4823,3273 4827,3270 4831,3268 4836,3267 4841,3266 4845,3266 4850,3267 4855,3269 4859,3271 4862,3275 4866,3279 4868,3283 4869,3288 L 4869,3288 Z"/>
          </g>
         </g>
         <g class="com.sun.star.drawing.CustomShape">
          <g id="id21">
           <rect class="BoundingBox" stroke="none" fill="none" x="4732" y="3709" width="57" height="57"/>
           <path fill="rgb(225,97,115)" stroke="none" d="M 4786,3731 C 4787,3735 4787,3740 4786,3745 4785,3750 4782,3754 4779,3757 4775,3761 4771,3763 4766,3764 4761,3765 4757,3765 4752,3764 4747,3762 4743,3760 4740,3756 4736,3753 4734,3749 4733,3744 4732,3739 4732,3734 4733,3730 4735,3725 4737,3721 4741,3718 4744,3714 4748,3712 4753,3711 4758,3710 4763,3710 4767,3711 4772,3712 4776,3715 4779,3718 4783,3722 4785,3726 4786,3731 L 4786,3731 Z"/>
          </g>
         </g>
         <g class="com.sun.star.drawing.CustomShape">
          <g id="id22">
           <rect class="BoundingBox" stroke="none" fill="none" x="4355" y="3080" width="75" height="75"/>
           <path fill="rgb(225,97,115)" stroke="none" d="M 4427,3109 C 4429,3115 4429,3122 4427,3128 4426,3134 4423,3139 4418,3144 4414,3148 4408,3151 4402,3153 4396,3154 4389,3154 4383,3152 4377,3150 4371,3147 4367,3142 4362,3137 4359,3131 4357,3125 4355,3119 4355,3112 4357,3106 4358,3100 4361,3095 4366,3090 4370,3086 4376,3083 4382,3081 4388,3080 4395,3080 4401,3082 4407,3084 4413,3087 4417,3092 4422,3097 4425,3103 4427,3109 L 4427,3109 Z"/>
          </g>
         </g>
         <g class="com.sun.star.drawing.CustomShape">
          <g id="id23">
           <rect class="BoundingBox" stroke="none" fill="none" x="4416" y="2901" width="74" height="76"/>
           <path fill="rgb(225,97,115)" stroke="none" d="M 4417,2946 C 4418,2953 4421,2959 4426,2963 4430,2968 4435,2972 4441,2974 4447,2976 4454,2976 4460,2975 4466,2974 4472,2971 4477,2966 4481,2962 4485,2956 4487,2950 4488,2944 4489,2937 4487,2931 4486,2924 4483,2918 4479,2914 4474,2909 4469,2905 4463,2903 4457,2901 4450,2901 4444,2902 4438,2903 4432,2906 4428,2911 4423,2915 4420,2921 4418,2927 4416,2933 4416,2940 4417,2946 L 4417,2946 Z"/>
          </g>
         </g>
        </g>
        <g class="Group">
         <g class="com.sun.star.drawing.ClosedBezierShape">
          <g id="id24">
           <rect class="BoundingBox" stroke="none" fill="none" x="2928" y="609" width="1877" height="2380"/>
           <path fill="rgb(170,222,167)" stroke="none" d="M 3369,1338 C 3382,1341 3242,609 3413,622 3464,629 3467,654 3464,944 3463,1220 3531,1414 3694,1442 3702,1438 3872,1508 3997,1364 4062,1284 4116,1153 4140,1051 4164,948 4101,893 4205,868 4292,852 4303,1024 4231,1194 4159,1364 4001,1533 4049,1571 4127,1664 4175,1335 4297,1454 4362,1493 4224,1611 4245,1689 4257,1746 4252,1852 4286,1920 4328,2006 4492,2237 4480,2406 4492,2681 4768,2521 4790,2627 4813,2733 4597,2654 4621,2767 4060,2837 3500,2906 2941,2975 3083,2430 3226,1884 3369,1338 Z"/>
           <path fill="none" stroke="rgb(52,101,164)" stroke-width="25" stroke-linejoin="round" d="M 3369,1338 C 3382,1341 3242,609 3413,622 3464,629 3467,654 3464,944 3463,1220 3531,1414 3694,1442 3702,1438 3872,1508 3997,1364 4062,1284 4116,1153 4140,1051 4164,948 4101,893 4205,868 4292,852 4303,1024 4231,1194 4159,1364 4001,1533 4049,1571 4127,1664 4175,1335 4297,1454 4362,1493 4224,1611 4245,1689 4257,1746 4252,1852 4286,1920 4328,2006 4492,2237 4480,2406 4492,2681 4768,2521 4790,2627 4813,2733 4597,2654 4621,2767 4060,2837 3500,2906 2941,2975 3083,2430 3226,1884 3369,1338 Z"/>
          </g>
         </g>
        </g>
        <g class="Group">
         <g class="Group">
          <g class="com.sun.star.drawing.ClosedBezierShape">
           <g id="id25">
            <rect class="BoundingBox" stroke="none" fill="none" x="1127" y="2678" width="1823" height="900"/>
            <path fill="rgb(246,109,68)" stroke="none" d="M 1347,3564 C 1340,3566 1261,3481 1249,3430 1239,3398 1312,3432 1353,3403 1378,3386 1431,3273 1366,3233 1301,3194 1158,3300 1144,3234 1131,3182 1152,3119 1157,3064 1170,2998 1209,3051 1250,2985 1288,2920 1167,2937 1171,2895 1173,2852 1186,2868 1210,2829 1234,2790 1235,2712 1268,2691 1824,2787 2380,2883 2936,2980 2407,3174 1877,3369 1347,3564 Z"/>
            <path fill="none" stroke="rgb(52,101,164)" stroke-width="25" stroke-linejoin="round" d="M 1347,3564 C 1340,3566 1261,3481 1249,3430 1239,3398 1312,3432 1353,3403 1378,3386 1431,3273 1366,3233 1301,3194 1158,3300 1144,3234 1131,3182 1152,3119 1157,3064 1170,2998 1209,3051 1250,2985 1288,2920 1167,2937 1171,2895 1173,2852 1186,2868 1210,2829 1234,2790 1235,2712 1268,2691 1824,2787 2380,2883 2936,2980 2407,3174 1877,3369 1347,3564 Z"/>
           </g>
          </g>
         </g>
         <g class="com.sun.star.drawing.CustomShape">
          <g id="id26">
           <rect class="BoundingBox" stroke="none" fill="none" x="1108" y="2952" width="57" height="57"/>
           <path fill="rgb(52,101,164)" stroke="none" d="M 1162,2974 C 1164,2979 1163,2984 1162,2989 1161,2993 1158,2997 1155,3001 1151,3004 1147,3006 1143,3007 1138,3008 1133,3008 1129,3007 1124,3005 1120,3002 1116,2999 1113,2995 1111,2991 1110,2986 1108,2981 1109,2976 1110,2971 1111,2967 1114,2963 1117,2959 1121,2956 1125,2954 1129,2953 1134,2952 1139,2952 1143,2953 1148,2955 1152,2958 1156,2961 1159,2965 1161,2969 1162,2974 L 1162,2974 Z"/>
          </g>
         </g>
         <g class="com.sun.star.drawing.CustomShape">
          <g id="id27">
           <rect class="BoundingBox" stroke="none" fill="none" x="1249" y="3288" width="57" height="57"/>
           <path fill="rgb(52,101,164)" stroke="none" d="M 1303,3310 C 1304,3314 1304,3319 1303,3324 1302,3329 1299,3333 1296,3336 1292,3340 1288,3342 1283,3343 1278,3344 1274,3344 1269,3343 1264,3341 1260,3339 1257,3335 1253,3332 1251,3328 1250,3323 1249,3318 1249,3313 1250,3309 1252,3304 1254,3300 1258,3297 1261,3293 1265,3291 1270,3290 1275,3289 1280,3289 1284,3290 1289,3291 1293,3294 1296,3297 1300,3301 1302,3305 1303,3310 L 1303,3310 Z"/>
          </g>
         </g>
         <g class="com.sun.star.drawing.CustomShape">
          <g id="id28">
           <rect class="BoundingBox" stroke="none" fill="none" x="1036" y="3295" width="112" height="111"/>
           <path fill="rgb(52,101,164)" stroke="none" d="M 1144,3337 C 1147,3346 1147,3356 1144,3365 1142,3374 1137,3383 1130,3389 1123,3396 1115,3401 1106,3403 1096,3405 1087,3405 1077,3403 1068,3400 1060,3395 1053,3388 1046,3382 1041,3373 1039,3364 1036,3355 1036,3345 1039,3336 1041,3327 1046,3318 1053,3311 1060,3305 1068,3300 1078,3298 1087,3295 1097,3295 1106,3298 1115,3301 1124,3306 1130,3312 1137,3319 1142,3328 1144,3337 L 1144,3337 Z"/>
          </g>
         </g>
         <g class="com.sun.star.drawing.CustomShape">
          <g id="id29">
           <rect class="BoundingBox" stroke="none" fill="none" x="2548" y="4504" width="112" height="110"/>
           <path fill="rgb(230,246,157)" stroke="none" d="M 2656,4546 C 2659,4555 2659,4565 2656,4574 2653,4583 2648,4591 2642,4598 2635,4604 2626,4609 2617,4611 2608,4613 2598,4613 2589,4611 2579,4608 2571,4603 2564,4596 2558,4589 2553,4581 2551,4572 2548,4563 2548,4553 2551,4544 2554,4535 2559,4527 2565,4520 2572,4514 2581,4509 2590,4507 2599,4504 2609,4504 2618,4507 2628,4510 2636,4515 2643,4521 2649,4528 2654,4537 2656,4546 L 2656,4546 Z"/>
          </g>
         </g>
         <g class="com.sun.star.drawing.CustomShape">
          <g id="id30">
           <rect class="BoundingBox" stroke="none" fill="none" x="2801" y="4357" width="113" height="109"/>
           <path fill="rgb(230,246,157)" stroke="none" d="M 2910,4398 C 2913,4407 2913,4417 2910,4426 2908,4435 2903,4443 2896,4450 2889,4456 2880,4461 2871,4463 2862,4465 2852,4465 2842,4463 2833,4460 2825,4455 2818,4449 2811,4442 2806,4433 2804,4424 2801,4415 2801,4405 2804,4396 2806,4387 2811,4379 2818,4372 2825,4366 2834,4361 2843,4359 2852,4357 2862,4357 2872,4359 2881,4362 2889,4367 2896,4373 2903,4380 2908,4389 2910,4398 L 2910,4398 Z"/>
          </g>
         </g>
         <g class="com.sun.star.drawing.CustomShape">
          <g id="id31">
           <rect class="BoundingBox" stroke="none" fill="none" x="3123" y="4467" width="111" height="111"/>
           <path fill="rgb(230,246,157)" stroke="none" d="M 3231,4508 C 3234,4517 3234,4527 3231,4536 3228,4545 3223,4553 3217,4560 3210,4567 3201,4572 3192,4574 3183,4577 3173,4577 3163,4574 3154,4572 3146,4567 3139,4560 3132,4554 3127,4545 3125,4536 3122,4527 3122,4517 3125,4508 3128,4499 3133,4491 3139,4484 3146,4477 3155,4472 3164,4470 3173,4467 3183,4467 3193,4470 3202,4472 3210,4477 3217,4484 3224,4490 3229,4499 3231,4508 L 3231,4508 Z"/>
          </g>
         </g>
        </g>
        <g class="com.sun.star.drawing.CustomShape">
         <g id="id32">
          <rect class="BoundingBox" stroke="none" fill="none" x="2340" y="2317" width="1342" height="1342"/>
          <path fill="rgb(255,255,255)" stroke="none" d="M 3642,2804 C 3674,2915 3676,3032 3649,3144 3621,3256 3564,3359 3484,3443 3404,3526 3304,3587 3193,3619 3082,3651 2965,3654 2853,3626 2741,3599 2638,3542 2555,3462 2472,3382 2411,3282 2379,3171 2347,3060 2345,2943 2373,2830 2400,2718 2457,2615 2537,2532 2617,2449 2717,2388 2828,2356 2939,2323 3056,2321 3168,2349 3280,2376 3383,2433 3466,2513 3549,2592 3610,2693 3642,2804 L 3642,2804 Z"/>
          <path fill="none" stroke="rgb(52,101,164)" stroke-width="25" stroke-linejoin="round" d="M 3642,2804 C 3674,2915 3676,3032 3649,3144 3621,3256 3564,3359 3484,3443 3404,3526 3304,3587 3193,3619 3082,3651 2965,3654 2853,3626 2741,3599 2638,3542 2555,3462 2472,3382 2411,3282 2379,3171 2347,3060 2345,2943 2373,2830 2400,2718 2457,2615 2537,2532 2617,2449 2717,2388 2828,2356 2939,2323 3056,2321 3168,2349 3280,2376 3383,2433 3466,2513 3549,2592 3610,2693 3642,2804 L 3642,2804 Z"/>
         </g>
        </g>
       </g>
      </g>
      <g class="com.sun.star.drawing.ClosedBezierShape">
       <g id="id33">
        <rect class="BoundingBox" stroke="none" fill="none" x="1818" y="1784" width="2190" height="2346"/>
        <path fill="rgb(255,255,255)" stroke="none" d="M 4007,2952 C 4007,3127 3982,3287 3931,3433 3880,3578 3807,3702 3711,3805 3615,3908 3500,3988 3366,4044 3232,4101 3081,4129 2915,4129 2751,4129 2602,4101 2468,4044 2334,3988 2219,3908 2123,3805 2027,3702 1953,3578 1899,3433 1845,3287 1818,3127 1818,2952 1818,2777 1846,2618 1901,2474 1956,2330 2032,2207 2130,2106 2227,2004 2343,1925 2477,1869 2611,1812 2757,1784 2915,1784 3076,1784 3223,1812 3357,1869 3491,1925 3606,2004 3702,2106 3798,2207 3873,2330 3927,2474 3980,2618 4007,2777 4007,2952 Z M 3364,2952 C 3364,2758 3325,2605 3247,2493 3170,2382 3059,2326 2915,2326 2771,2326 2659,2382 2580,2493 2501,2605 2462,2758 2462,2952 2462,3147 2501,3301 2580,3416 2659,3530 2771,3587 2915,3587 3059,3587 3170,3530 3247,3416 3325,3301 3364,3147 3364,2952 Z"/>
       </g>
      </g>
      <g class="com.sun.star.drawing.ClosedBezierShape">
       <g id="id34">
        <rect class="BoundingBox" stroke="none" fill="none" x="1911" y="1879" width="2009" height="2152"/>
        <path fill="rgb(0,63,92)" stroke="none" d="M 3918,2951 C 3918,3111 3895,3258 3848,3391 3802,3524 3734,3638 3646,3733 3558,3827 3453,3900 3330,3952 3207,4004 3069,4029 2917,4030 2767,4029 2630,4004 2507,3952 2384,3900 2279,3827 2191,3733 2103,3638 2035,3524 1985,3391 1936,3258 1912,3111 1912,2951 1912,2790 1937,2644 1987,2512 2038,2380 2108,2268 2197,2174 2286,2081 2392,2009 2515,1957 2638,1905 2772,1880 2917,1880 3064,1880 3200,1905 3322,1957 3445,2009 3551,2081 3639,2174 3727,2268 3795,2380 3844,2512 3894,2644 3918,2790 3918,2951 Z M 3328,2951 C 3328,2772 3293,2632 3221,2530 3150,2427 3049,2376 2917,2376 2785,2376 2683,2427 2610,2530 2538,2632 2502,2772 2502,2951 2502,3129 2538,3271 2610,3376 2683,3480 2785,3533 2917,3533 3049,3533 3150,3480 3221,3376 3293,3271 3328,3129 3328,2951 Z"/>
       </g>
      </g>
     </g>
    </g>
   </g>
  </g>
 </g>
</svg>